<svg xmlns="http://www.w3.org/2000/svg" width="109" height="60" viewBox="0 0 109 60">
  <g id="Group_3" data-name="Group 3" transform="translate(-2382 -1321)">
    <g id="Subtraction_1" data-name="Subtraction 1" transform="translate(2402 1321)" fill="#c2e5ff">
      <path d="M 29.49970054626465 59.49533462524414 C 25.69487380981445 59.43380737304688 22.00262260437012 58.65640640258789 18.51736068725586 57.18222045898438 C 15.00463008880615 55.6964225769043 11.84975051879883 53.56925964355469 9.14037036895752 50.85982894897461 C 6.430980205535889 48.15037155151367 4.303850173950195 44.99539947509766 2.81807017326355 41.48257064819336 C 1.279910326004028 37.84590911865234 0.5000002980232239 33.98252105712891 0.5000002980232239 29.99970054626465 C 0.5000002980232239 26.0171012878418 1.279910326004028 22.15388107299805 2.81807017326355 18.51736068725586 C 4.303850173950195 15.00464057922363 6.430970191955566 11.84976100921631 9.140359878540039 9.140360832214355 C 11.84976005554199 6.430970668792725 15.00464057922363 4.303850650787354 18.51736068725586 2.818070650100708 C 22.00139617919922 1.344407558441162 25.69386863708496 0.5667335391044617 29.49970054626465 0.5041074752807617 L 29.49970054626465 59.49533462524414 Z" stroke="none"/>
      <path d="M 28.99970054626465 58.98283004760742 L 28.99970054626465 1.016745686531067 C 25.43778038024902 1.136345148086548 21.98147583007812 1.895723342895508 18.7121410369873 3.278570652008057 C 15.25901985168457 4.739140510559082 12.15756034851074 6.830280780792236 9.49392032623291 9.49392032623291 C 6.830280303955078 12.15756034851074 4.739140510559082 15.25902080535889 3.278570175170898 18.7121410369873 C 1.766620278358459 22.28670120239258 1.000000238418579 26.08438110351562 1.000000238418579 29.99970054626465 C 1.000000238418579 33.91524124145508 1.766620278358459 37.71310043334961 3.278580188751221 41.28779220581055 C 4.739150047302246 44.74103164672852 6.8302903175354 47.84257888793945 9.49392032623291 50.50627899169922 C 12.15754985809326 53.16995239257812 15.25901031494141 55.26113128662109 18.7121410369873 56.72172164916992 C 21.98249244689941 58.10500717163086 25.43880271911621 58.86415863037109 28.99970054626465 58.98283004760742 M 29.99970054626465 60.00030136108398 L 29.99769973754883 59.99930191040039 C 25.9489631652832 60.00154113769531 22.02083015441895 59.20700073242188 18.32258033752441 57.64271926879883 C 14.75024032592773 56.13171005249023 11.54194068908691 53.96855926513672 8.786809921264648 51.21337890625 C 6.031670093536377 48.45817184448242 3.868560314178467 45.24979019165039 2.357570171356201 41.67734146118164 C 0.7932002544403076 37.97872161865234 2.731323149873788e-07 34.04978942871094 2.731323149873788e-07 29.99970054626465 C 2.731323149873788e-07 25.94982147216797 0.7932002544403076 22.02107048034668 2.357570171356201 18.32258033752441 C 3.868560314178467 14.75025081634521 6.031670093536377 11.54196071624756 8.786809921264648 8.786810874938965 C 11.54196071624756 6.031670570373535 14.7502498626709 3.868560791015625 18.32258033752441 2.357570648193359 C 22.02107048034668 0.793200671672821 25.94981956481934 6.805419729971618e-07 29.99970054626465 6.805419729971618e-07 L 29.99970054626465 60.00030136108398 Z" stroke="none" fill="#454545"/>
    </g>
    <g id="Subtraction_2" data-name="Subtraction 2" transform="translate(2382 1321)" fill="#fff3e5">
      <path d="M 20.49970054626465 57.93675231933594 C 17.78436470031738 57.0145149230957 15.22213840484619 55.69972229003906 12.87458992004395 54.02307510375977 C 10.37390041351318 52.23705673217773 8.174230575561523 50.08209609985352 6.336670398712158 47.6180534362793 C 2.518290281295776 42.49789428710938 0.5000002980232239 36.40556335449219 0.5000002980232239 29.99969482421875 C 0.5000002980232239 23.59416580200195 2.518280267715454 17.50208473205566 6.336660385131836 12.38205528259277 C 8.174210548400879 9.918085098266602 10.3738899230957 7.763175010681152 12.87458992004395 5.977164745330811 C 15.22139644622803 4.30107307434082 17.78354454040527 2.986138582229614 20.49970054626465 2.062971591949463 L 20.49970054626465 57.93675231933594 Z" stroke="none"/>
      <path d="M 19.99970054626465 57.22987365722656 L 19.99970054626465 2.770004272460938 C 17.57465362548828 3.660584211349487 15.28081798553467 4.873067378997803 13.16518020629883 6.384055137634277 C 10.70665073394775 8.139945030212402 8.544050216674805 10.25853538513184 6.737470149993896 12.68097496032715 C 2.98399019241333 17.71398544311523 1.000000238418579 23.70270538330078 1.000000238418579 29.99969482421875 C 1.000000238418579 36.29702377319336 2.98399019241333 42.28599548339844 6.737480163574219 47.31914520263672 C 8.544070243835449 49.74165344238281 10.70666980743408 51.86028671264648 13.16519069671631 53.61619567871094 C 15.28150463104248 55.127685546875 17.57528305053711 56.34001922607422 19.99970054626465 57.22987365722656 M 20.99970054626465 58.62680435180664 L 20.99769973754883 58.62544631958008 C 17.99081993103027 57.68151473999023 15.15980052947998 56.26962661743164 12.5839900970459 54.42995452880859 C 10.04116058349609 52.61383438110352 7.804400444030762 50.42255401611328 5.935850143432617 47.91696548461914 C 2.0525803565979 42.70979309082031 2.731323149873788e-07 36.51410675048828 2.731323149873788e-07 29.99969482421875 C 2.731323149873788e-07 23.48562431335449 2.0525803565979 17.29018402099609 5.935850143432617 12.08314514160156 C 7.804380416870117 9.577634811401367 10.04114055633545 7.38639497756958 12.5839900970459 5.570284843444824 C 15.16009998321533 3.730424880981445 17.9915599822998 2.318414926528931 20.99970054626465 1.373484969139099 L 20.99970054626465 58.62680435180664 Z" stroke="none" fill="#454545"/>
    </g>
    <g id="Ellipse_3" data-name="Ellipse 3" transform="translate(2431 1321)" fill="#ff5f01" stroke="#454545" stroke-width="1">
      <circle cx="30" cy="30" r="30" stroke="none"/>
      <circle cx="30" cy="30" r="29.5" fill="none"/>
    </g>
    <g id="Group_4" data-name="Group 4" transform="translate(1492 714.111)">
      <path id="primary" d="M3,22.778l8.889-10.667,10.667,5.333L35,5" transform="translate(950 623)" fill="none" stroke="#fff" stroke-linecap="round" stroke-linejoin="round" stroke-width="2"/>
      <path id="primary-2" data-name="primary" d="M24.889,13.889V5H16" transform="translate(960.111 623)" fill="none" stroke="#fff" stroke-linecap="round" stroke-linejoin="round" stroke-width="2"/>
    </g>
  </g>
</svg>
